Coordinates
version=1
nRows=13
nColumns=40
inDegrees=yes

Units are S.I. units (second, meters, Newtons, ...)
Angles are in degrees.

endheader
time	pelvis_tilt	pelvis_list	pelvis_rotation	pelvis_tx	pelvis_ty	pelvis_tz	hip_flexion_r	hip_adduction_r	hip_rotation_r	knee_angle_r	knee_angle_r_beta	ankle_angle_r	subtalar_angle_r	mtp_angle_r	hip_flexion_l	hip_adduction_l	hip_rotation_l	knee_angle_l	knee_angle_l_beta	ankle_angle_l	subtalar_angle_l	mtp_angle_l	lumbar_extension	lumbar_bending	lumbar_rotation	arm_flex_r	arm_add_r	arm_rot_r	elbow_flex_r	pro_sup_r	wrist_flex_r	wrist_dev_r	arm_flex_l	arm_add_l	arm_rot_l	elbow_flex_l	pro_sup_l	wrist_flex_l	wrist_dev_l
     55.35000000	     -5.86150120	     -5.02929480	      2.65854267	      0.98584695	      0.93508159	      0.39671887	     31.47125886	     -5.73001666	     -6.90165389	     68.82972352	     68.82972352	      1.89024209	    -13.17374874	     -1.05772453	     15.79175412	     -3.58046158	     -7.63546736	     18.93897079	     18.93897079	     12.40996283	     -6.04905088	      1.09427972	     -8.45937268	      6.77196211	      2.68557883	      9.67077299	    -13.30315814	    -12.73984606	     44.70676534	     45.12946095	      0.00000000	      0.00000000	      6.27721122	    -13.68260444	      1.77136189	     53.50535961	     45.97888319	      0.00000000	      0.00000000
     55.36250000	     -6.06361345	     -5.14418777	      2.49602196	      0.98408157	      0.93522549	      0.39683535	     32.99412125	     -5.60873863	     -7.14087997	     67.29755463	     67.29755463	      1.78401960	    -13.28602072	     -1.85753544	     15.16794387	     -3.62487776	     -7.48544406	     18.19193525	     18.19193525	     12.41802468	     -6.32252528	      0.56013209	     -8.41750770	      6.78321752	      2.80579267	      8.52705153	    -13.04504896	    -12.19450765	     40.58950882	     45.29404618	      0.00000000	      0.00000000	      7.71559991	    -13.89541050	      1.24146018	     55.42687877	     46.10997020	      0.00000000	      0.00000000
     55.37500000	     -6.20467498	     -5.28131374	      2.30353648	      0.98236714	      0.93542481	      0.39701703	     34.31287683	     -5.39747824	     -7.35656653	     65.51558753	     65.51558753	      1.81924539	    -13.22831922	     -1.81425177	     14.48019353	     -3.74703948	     -7.57183396	     17.48050317	     17.48050317	     12.61692262	     -6.20875006	      0.37139769	     -8.54627772	      6.84933379	      3.39732348	      6.42291749	    -12.97389388	    -11.84392219	     38.58839881	     45.34889568	      0.00000000	      0.00000000	      9.48042102	    -13.82009927	      0.68855284	     57.24213134	     46.20338034	      0.00000000	      0.00000000
     55.38750000	     -6.33097849	     -5.40709963	      2.17656694	      0.98072912	      0.93540576	      0.39716473	     35.42004465	     -5.21565951	     -7.66532953	     63.42948995	     63.42948995	      1.74806972	    -13.22273170	     -2.25483130	     13.75398814	     -3.81923794	     -7.50002361	     16.64279311	     16.64279311	     12.16482127	     -6.51089410	     -1.22413606	     -8.60506755	      6.88110152	      2.76415006	      6.37531908	    -12.50517108	    -10.41278187	     33.09730011	     45.53271060	      0.00000000	      0.00000000	     10.06123483	    -14.27979704	     -0.61804726	     60.36753112	     46.41328316	      0.00000000	      0.00000000
     55.40000000	     -6.43949394	     -5.51486955	      2.00175313	      0.97916290	      0.93531721	      0.39748955	     36.38013042	     -4.97018197	     -7.92108544	     61.06258178	     61.06258178	      1.79772643	    -13.07569612	     -1.97502266	     13.07932306	     -3.92208921	     -7.56725574	     16.01183654	     16.01183654	     12.36085685	     -6.44305577	     -1.52003691	     -8.76224006	      6.90043711	      3.22350866	      4.49246696	    -12.31607936	    -10.01395887	     31.29940368	     45.58005279	      0.00000000	      0.00000000	     11.73607425	    -14.16718058	     -1.32938648	     62.13941584	     46.51924790	      0.00000000	      0.00000000
     55.41250000	     -6.55777334	     -5.62743098	      1.83856886	      0.97774180	      0.93502492	      0.39788389	     37.15061632	     -4.69377725	     -8.22328122	     58.32689157	     58.32689157	      1.80033969	    -12.86417391	     -1.83187691	     12.37121413	     -4.01912177	     -7.58544860	     15.24243765	     15.24243765	     11.98096222	     -6.64259789	     -3.12811484	     -8.82704846	      6.96032712	      2.73228887	      4.05543658	    -11.90877213	     -8.74672210	     27.36326669	     45.71666401	      0.00000000	      0.00000000	     12.37679734	    -14.43116599	     -2.86421818	     65.03479995	     46.73666060	      0.00000000	      0.00000000
     55.42500000	     -6.67068319	     -5.66965402	      1.64697553	      0.97643933	      0.93462555	      0.39836557	     37.75557417	     -4.42954737	     -8.49388803	     55.25579026	     55.25579026	      1.83660322	    -12.54268305	     -1.51034329	     11.73408294	     -4.07482600	     -7.70904220	     14.69666144	     14.69666144	     12.20334292	     -6.53307571	     -3.44434586	     -8.94309871	      6.93899449	      3.07179603	      2.26271601	    -11.66478085	     -8.45363157	     26.03585923	     45.75300427	      0.00000000	      0.00000000	     13.89851954	    -14.37746657	     -3.45409271	     66.79172263	     46.82770146	      0.00000000	      0.00000000
     55.43750000	     -6.75405318	     -5.68873250	      1.42045744	      0.97534082	      0.93414024	      0.39895491	     38.12085954	     -4.13108641	     -8.78887540	     51.79606420	     51.79606420	      1.89088163	    -12.07224010	     -1.22596455	     11.05785265	     -4.12421908	     -7.91025296	     14.17096939	     14.17096939	     12.40613774	     -6.39724297	     -3.89508682	     -9.05436309	      6.90064687	      3.28812393	      0.63664308	    -11.41068369	     -8.19654676	     24.79454076	     45.78786044	      0.00000000	      0.00000000	     15.20547986	    -14.39505329	     -4.02708060	     68.67418591	     46.91495006	      0.00000000	      0.00000000
     55.45000000	     -6.85244191	     -5.56012015	      1.16159393	      0.97446446	      0.93344223	      0.39960031	     38.33504944	     -3.92254573	     -9.04667781	     48.02689916	     48.02689916	      1.81029044	    -11.49902771	     -1.31328111	     10.32988838	     -4.01834544	     -8.21981570	     13.54336155	     13.54336155	     12.35831120	     -6.23255826	     -4.94870703	     -9.13521337	      6.66919987	      3.17656766	     -0.66842302	    -11.08860189	     -7.76630342	     23.34530353	     45.84311357	      0.00000000	      0.00000000	     15.97923229	    -14.55822702	     -5.03182608	     71.46379600	     47.05503258	      0.00000000	      0.00000000
     55.46250000	     -6.92244133	     -5.48668748	      0.92814320	      0.97381893	      0.93276427	      0.40023881	     38.24796414	     -3.63688216	     -9.46972823	     43.84595768	     43.84595768	      1.81618214	    -10.62351061	     -0.91051107	      9.65220768	     -3.96697131	     -8.41744945	     13.10600843	     13.10600843	     12.59682696	     -6.15133706	     -5.28629096	     -9.20335263	      6.56066869	      3.12523329	     -2.17164586	    -10.86908976	     -7.63323823	     22.57562327	     45.86419873	      0.00000000	      0.00000000	     17.07176902	    -14.72622004	     -5.56002903	     73.00432017	     47.12861519	      0.00000000	      0.00000000
     55.47500000	     -6.90270464	     -5.24798990	      0.63395246	      0.97350707	      0.93207687	      0.40091123	     37.88890527	     -3.43262109	     -9.85912674	     39.44996068	     39.44996068	      1.75875026	     -9.47046099	     -0.50853316	      8.77721074	     -3.73655214	     -8.75823973	     12.55165703	     12.55165703	     12.80220070	     -5.94128266	     -5.72002791	     -9.35734130	      6.23382311	      3.23585263	     -3.74670391	    -10.68241450	     -7.51510188	     21.88180375	     45.88485242	      0.00000000	      0.00000000	     18.05701655	    -14.74747437	     -6.18722334	     75.07826363	     47.21861186	      0.00000000	      0.00000000
     55.48750000	     -6.88584509	     -4.88050973	      0.32367595	      0.97353294	      0.93118553	      0.40162951	     37.35812511	     -3.31392535	    -10.32156602	     34.93651900	     34.93651900	      1.69598090	     -7.96772194	     -0.34882300	      7.79910660	     -3.35361148	     -9.20666930	     11.82058114	     11.82058114	     12.75943466	     -5.66008241	     -6.63535734	     -9.51859775	      5.73820596	      2.94006209	     -5.15298791	    -10.47990794	     -7.32640363	     21.61809023	     45.90844546	      0.00000000	      0.00000000	     18.32855522	    -14.93465745	     -7.45773989	     78.44840518	     47.38786282	      0.00000000	      0.00000000
     55.50000000	     -6.83837288	     -4.61870112	      0.10283716	      0.97384266	      0.93030610	      0.40234037	     36.53945967	     -3.04274924	    -10.96754781	     30.22736164	     30.22736164	      1.51580397	     -6.46077296	      0.57686510	      6.95195337	     -3.09179999	     -9.44702087	     11.43359068	     11.43359068	     13.04239318	     -5.56271073	     -6.90574125	     -9.56752640	      5.42979990	      2.83746815	     -6.58459409	    -10.40508682	     -7.27498624	     21.20687954	     45.91960599	      0.00000000	      0.00000000	     19.19217603	    -15.09697033	     -7.92238075	     79.89592730	     47.45685882	      0.00000000	      0.00000000
